<?xml version="1.0" encoding="utf-8"?>
<!-- Generator: Adobe Illustrator 16.0.4, SVG Export Plug-In . SVG Version: 6.00 Build 0)  -->
<!DOCTYPE svg PUBLIC "-//W3C//DTD SVG 1.1//EN" "http://www.w3.org/Graphics/SVG/1.1/DTD/svg11.dtd">
<svg version="1.1" id="Layer_1" xmlns="http://www.w3.org/2000/svg" xmlns:xlink="http://www.w3.org/1999/xlink" x="0px" y="0px"
	 width="99.42px" height="99.42px" viewBox="0 0 99.42 99.42" enable-background="new 0 0 99.42 99.42" xml:space="preserve">
<path fill="#65CDF7" d="M0,49.709C0,22.256,22.255,0,49.71,0c27.454,0,49.71,22.256,49.71,49.709
	c0,27.455-22.256,49.711-49.71,49.711C22.255,99.42,0,77.164,0,49.709z M29.125,75.593c0,3.48,2.821,6.302,6.301,6.302
	c1.187,0,2.297-0.328,3.248-0.896l42.915-24.803c2.21-0.979,3.753-3.191,3.753-5.766c0-2.381-1.321-4.453-3.27-5.535L38.958,19.987
	c-1.005-0.679-2.217-1.075-3.521-1.075c-3.466,0-6.278,2.798-6.302,6.258v50.051L29.125,75.593z"/>
</svg>
