<?xml version="1.0" encoding="utf-8"?>
<!-- Generator: Adobe Illustrator 16.0.4, SVG Export Plug-In . SVG Version: 6.00 Build 0)  -->
<!DOCTYPE svg PUBLIC "-//W3C//DTD SVG 1.1//EN" "http://www.w3.org/Graphics/SVG/1.1/DTD/svg11.dtd">
<svg version="1.1" id="Layer_1" xmlns="http://www.w3.org/2000/svg" xmlns:xlink="http://www.w3.org/1999/xlink" x="0px" y="0px"
	 width="98.071px" height="98.475px" viewBox="0 0 98.071 98.475" enable-background="new 0 0 98.071 98.475" xml:space="preserve">
<g>
	<g>
		<path fill="#203599" d="M47.533,34.045c0-6.065,4.934-11,11-11H90.93C82.215,9.201,66.803,0,49.235,0C22.043,0,0,22.044,0,49.237
			c0,11.737,4.107,22.516,10.963,30.977C11.206,68.108,12.055,50.67,15,47.454c1.3-1.419,3.095-2.34,5.042-2.34
			c0,0,12.733-0.016,16.358-0.039c2.557-0.29,5.49,0.928,7.578,3.41l3.555,4.222V34.045z M28.199,43.201
			c-7.839,0-14.196-6.356-14.196-14.198c0-7.843,6.356-14.199,14.196-14.199c7.844,0,14.201,6.356,14.201,14.199
			C42.4,36.845,36.043,43.201,28.199,43.201z"/>
		<path fill="#203599" d="M65.526,75.429c-1.83,2.183-3.34,3.95-3.898,4.518c-1.037,1.052-2.564,1.371-4.064,1.314
			c-0.803,0.031-1.58-0.11-2.271-0.438c-1.557-0.537-3.068-1.558-4.291-3.01l-4.743-5.634c0.318,7.685,0.336,14.941,0.336,18.118
			c0,2.042,0.23,4.96,0.338,8.123c0.764,0.035,1.531,0.054,2.303,0.054c17.566,0,32.979-9.202,41.693-23.046H65.526z"/>
	</g>
	<path fill="#203599" d="M91.047,25.045H58.534c-4.963,0-9,4.037-9,9v20.847l9.361,11.124l7.557-8.972
		c1.582-1.878,3.846-2.999,6.053-2.999c1.309,0,2.504,0.395,3.465,1.142c1.137,0.885,1.852,2.211,2.012,3.734
		c0.203,1.942-0.494,4.022-1.912,5.706c0,0-3.635,4.45-7.242,8.802h23.248c3.924-7.099,5.994-15.145,5.994-23.309
		C98.069,41.241,95.643,32.584,91.047,25.045z M84.61,51.941c-1.156,3.016-4.541,4.521-7.557,3.364
		c-2.74-1.053-4.232-3.943-3.611-6.726c0.021-0.173,0.064-0.349,0.131-0.522l0.119-0.309l3.209-8.366
		c0.354-0.918,1.217-1.439,1.932-1.166c0.715,0.274,1.008,1.241,0.656,2.159l-1.43,3.723c1.033-0.197,2.133-0.118,3.188,0.286
		C84.262,45.543,85.768,48.926,84.61,51.941z"/>
</g>
</svg>
